<?xml version="1.0" encoding="UTF-8"?>
<svg id="Layer_2" data-name="Layer 2" xmlns="http://www.w3.org/2000/svg" viewBox="0 0 436.63 639.6">
  <defs>
    <style>
      .cls-1, .cls-2 {
        fill: #00b8ea;
      }

      .cls-3 {
        fill: #fff;
      }

      .cls-2 {
        font-family: Poppins-Medium, Poppins;
        font-size: 59.88px;
        font-weight: 500;
      }
    </style>
  </defs>
  <g id="Layer_1-2" data-name="Layer 1">
    <g>
      <g>
        <rect class="cls-3" y="74.55" width="436.63" height="565.05" rx="20.41" ry="20.41"/>
        <g>
          <polygon class="cls-1" points="72.76 321.3 77.14 321.3 81.53 321.3 81.53 281.12 111.89 281.12 111.89 276.74 111.89 272.36 72.76 272.36 72.76 321.3"/>
          <polygon class="cls-1" points="324.74 272.36 324.74 276.74 324.74 281.12 355.1 281.12 355.1 321.3 359.48 321.3 363.86 321.3 363.86 272.36 324.74 272.36"/>
          <polygon class="cls-1" points="81.53 534.14 77.14 534.14 72.76 534.14 72.76 583.09 111.89 583.09 111.89 578.71 111.89 574.33 81.53 574.33 81.53 534.14"/>
          <polygon class="cls-1" points="355.1 534.14 355.1 574.33 324.74 574.33 324.74 578.71 324.74 583.09 363.86 583.09 363.86 534.14 359.48 534.14 355.1 534.14"/>
        </g>
        <circle class="cls-1" cx="215.94" cy="85.15" r="85.15"/>
        <path class="cls-3" d="m161.7,120.39c1.11-1.41,1.76-2.89,2.53-4.29,8.2-14.76,16.38-29.52,24.56-44.29,3.05-5.5,6.07-11.01,9.12-16.51.29-.53.43-1.36,1.14-1.37.73,0,.85.85,1.14,1.36,5.85,10.36,11.68,20.73,17.52,31.1,5.75,10.21,11.51,20.41,17.26,30.62,1.54,2.74,3.06,5.49,4.61,8.22.5.88.25,1.23-.7,1.27-4.35.18-8.69.35-13.04.57-1.05.05-1.61-.38-2.11-1.27-7.84-13.77-15.72-27.53-23.6-41.28-.24-.41-.37-1.08-.9-1.08-.54,0-.62.69-.86,1.1-10.62,18.55-21.22,37.1-31.83,55.65-1.28,2.24-1.33,2.27-3.01.25-8.23-9.91-13.39-21.2-15.18-33.98-2.73-19.47,2.02-37.01,14.12-52.43,9.02-11.5,20.72-19.2,34.81-23.24,6.57-1.88,13.27-2.79,20.08-2.63,12.42.29,24.05,3.51,34.58,10.18,17.71,11.22,28.49,27.18,31.76,47.94,2.73,17.38-1.05,33.45-10.62,48.17-1.71,2.63-3.63,5.13-5.74,7.47-1.17,1.29-1.35,1.26-2.19-.2-8.38-14.6-16.76-29.21-25.13-43.82-2.61-4.56-5.23-9.12-7.82-13.69-.53-.93-.92-1.17-1.71-.17-1.49,1.91-3.12,3.71-4.67,5.57-.57.69-1.01.79-1.53-.06-2.16-3.57-4.32-7.15-6.53-10.69-.57-.91-.05-1.54.34-2.22,3.22-5.66,6.46-11.3,9.7-16.95.56-.97,1.1-1.95,1.67-2.92.81-1.37,1.06-1.36,1.84-.03,1.9,3.26,3.8,6.51,5.71,9.77,10.57,18.01,21.14,36.01,31.72,54.01.26.44.39,1.18,1.02,1.09.49-.07.54-.76.74-1.2,2.96-6.78,4.62-13.86,4.87-21.26.59-17.08-5.02-31.8-16.89-44.09-8.83-9.15-19.57-14.83-32.06-17-12.11-2.1-23.89-.78-35.08,4.48-15.88,7.48-26.6,19.63-31.95,36.32-3.7,11.54-3.64,23.23-.18,34.88.66,2.23,1.42,4.41,2.5,6.65Z"/>
      </g>
      <text class="cls-2" transform="translate(23.48 239.4)"><tspan x="0" y="0">MINEXX CLUB</tspan></text>
    </g>
  </g>
</svg>